<?xml version="1.0" encoding="UTF-8"?>
<svg width="223.49" height="159.25" version="1.1" viewBox="0 0 223.49353 159.25418" xmlns="http://www.w3.org/2000/svg" xmlns:xlink="http://www.w3.org/1999/xlink">
 <defs>
  <linearGradient id="a" x1="701.37" x2="721.83" y1="156.63" y2="152.7" gradientUnits="userSpaceOnUse">
   <stop stop-color="#800000" offset="0"/>
   <stop stop-color="#501616" offset="1"/>
  </linearGradient>
  <linearGradient id="d" x1="701.37" x2="721.83" y1="156.63" y2="152.7" gradientTransform="matrix(2.049 -.35445 .35445 2.049 -1404.3 56.897)" gradientUnits="userSpaceOnUse" xlink:href="#a"/>
  <linearGradient id="e" x1="701.37" x2="721.83" y1="156.63" y2="152.7" gradientTransform="matrix(1.9195 .79978 -.79978 1.9195 -1197.1 -746.8)" gradientUnits="userSpaceOnUse" xlink:href="#a"/>
 </defs>
 <g transform="matrix(-.23518 .40407 -.5476 -.17354 195.47 2.1003)" stroke-width=".30464">
  <path d="m126.16-55.162c1.0537 4.5246 2.2128 6.5018 3.5436 6.0445 2.9653-1.0187 4.5975 2.3534 5.08 10.496 0.28098 4.7405 1.1608 7.0602 2.5031 6.599 1.3416-0.46088 2.5131 2.6376 3.33 8.8068 0.88399 6.6749 1.9802 9.4275 3.67 9.2155 1.5806-0.19836 1.8988 3.6581 0.92467 11.208-1.1569 8.9671-0.83826 11.45 1.4417 11.236 2.2249-0.20898 2.1043 2.3283-0.50353 10.581-1.9459 6.1585-2.4934 10.965-1.2651 11.107 1.2304 0.14272 0.18859 5.8453-2.4138 13.211-2.5184 7.1277-4.2639 14.119-3.8792 15.535 0.38472 1.4167-1.4131 6.8605-3.9953 12.098-4.3177 8.7569-8.2087 13.675-29.26 36.985-5.4916 6.0806-13.497 18.468-13.125 21.896 1.4445 13.327-2.3655-4.3612-25.543-36.13-10.92-14.967-26.769-45.866-23.722-46.248 0.96857-0.12155 1.3507-3.7061 0.84915-7.9657-1.2082-10.259-0.37863-27.708 1.3746-28.919 1.795-1.2394 4.4256-20.734 3.064-22.705-0.58811-0.85172 0.45545-2.0281 2.4233-2.7317 2.554-0.91317 3.6387-3.3843 4.1552-9.4662 0.41706-4.9119 1.7585-8.5488 3.3266-9.0203 1.4721-0.44256 3.3665-4.3901 4.3077-8.9762 0.92417-4.5024 2.626-8.3048 3.7819-8.4499 1.1559-0.14504 2.9946-3.2774 4.0861-6.9611 1.0966-3.7008 3.0819-6.8349 4.4371-7.005 1.349-0.16928 3.0922-2.2654 3.8739-4.658 0.78158-2.3926 2.7601-4.7527 4.3968-5.2448 1.6367-0.49207 5.3222-5.1291 8.1899-10.304 6.1457-11.091 7.4354-11.012 15.695 0.96504 2.769 4.0157 5.9088 7.2509 6.9768 7.1898 1.068-0.061 2.9778 3.6468 4.2443 8.2399 1.6694 6.0548 2.875 8.1166 4.385 7.4993 1.5298-0.62532 2.4983 0.93367 3.6484 5.8726z" fill="#6a9c1c"/>
  <path d="m114.96-73.014c6.1694 19.712 24.42 36.576 20.126 58.753-1.7484 24.555-23.052 41.019-29.292 64.022-4.5303 6.3564-5.2505 30.593 4.8415 15.843 14.491-21.11 23.911-45.393 29.299-70.374 1.8523 27.992-11.959 53.7-26.356 76.632-3.6543 8.7373-12.208 22.099-9.8669 29.13 16.862-14.195 24.711-35.963 32.165-56.103 4.2488-9.6998 4.4382-20.574 8.5916-30.283 1.9712 24.237-11.122 45.933-22.17 66.441-10.214 11.162-12.587 29.468-26.794 36.674-8.6144-6.2515-6.8561-16.724-6.8223-25.83-0.10328-11.854 3.7395-26.46 4.9208-38.37 1.9261-37.763 7.4038-75.366 6.6457-113.24-6.5565 10.874 0.35363 30.298-14.974 34.805-9.3544 6.9503-3.1268 18.984-2.2194 28.185 2.089 6.5127-5.2052 13.401-5.6787 3.0531-15.425-5.8032-6.162 39.508-0.49179 49.748-14.697-0.22109-10.868 20.288-1.7777 26.072 8.6866 5.5259-0.84713 15.001-4.9751 4.7695-7.3388-9.4964-15.718-18.663-19.13-30.541-8.2201-23.367-1.525-48.423 4.9855-71.332 7.9741-24.215 19.645-47.593 35.714-67.417 16.234-12.017 20.566 11.347 16.212 22.658-3.4584 5.5241 4.3924 18.533 4.193 6.0965 0.0267-6.4314-5.4347-15.8 2.8543-19.389zm12.369 37.82c-4.1865 23.245-19.928 42.068-26.617 64.441 8.888 9.2126 13.974-11.694 18.8-17.437 8.0438-14.51 12.619-31.249 11.129-47.872-1.5319-4.9879-2.3036-1.5275-3.3128 0.86722zm-9.3839-11.481c-4.6278 13.95-10.564 27.643-12.449 42.334 12.019-11.964 19.129-30.246 14.299-47.018-2.1711-1.6893-1.3196 3.7874-1.8495 4.6836z" opacity=".083"/>
 </g>
 <path d="m150.76 33.789c-31.464-17.764-54.116-16.525-60.775-28.731l-3.4899 6.1686c3.4249 4.9114 31.967 6.2505 64.265 22.563z" fill="#19661e" stroke-width="2.9819"/>
 <path d="m94.657 114.51s-8.3614-45.436-10.96-69.146c-1.3978-12.753-4.5133-40.817-4.5133-40.817l9.8129 2.6289s-1.2548 25.772-0.59462 37.279c1.3521 23.57 6.2553 70.056 6.2553 70.056z" fill="#483737" stroke-width="2.9819"/>
 <path d="m32.019 79.965c-2.4401-0.63108-4.9912-0.75863-7.5951-0.64847-17.314 0.73975-25.006 18.612-24.39 37.821 0.53978 16.844 12.796 29.12 26.21 33.025 13.415 3.9051 30.344 0.12479 39.842-13.798 10.83-15.878 13.933-35.086-0.27935-45.002-2.1373-1.4914-4.3587-2.7522-6.7563-3.5294-0.34265-0.11056-0.68632-0.2105-1.0362-0.30155-4.3081-1.1151-8.9951 0.24688-13.351-0.63841-4.1507-1.5911-7.3742-5.2558-11.608-6.6274-0.34411-0.11116-0.68774-0.21109-1.0362-0.30176z" fill="url(#e)" stroke-width="2.0795"/>
 <path d="m76.554 95.464c-2.398 0.77606-4.6195 2.0366-6.7581 3.5261-14.217 9.9105-11.123 29.12-0.30078 45.002 9.4894 13.927 26.418 17.715 39.834 13.817 13.417-3.8987 25.678-16.169 26.227-33.014 0.62468-19.209-7.0579-37.086-24.372-37.833-2.6038-0.11249-5.1549 0.0148-7.5952 0.64471-0.3485 0.09046-0.69216 0.19043-1.0363 0.30125-4.2341 1.3694-7.4596 5.0327-11.611 6.6218-4.3566 0.88321-9.0427-0.48096-13.352 0.63197-0.35005 0.09073-0.69367 0.19069-1.0364 0.30105z" fill="url(#d)" stroke-width="2.0795"/>
 <path d="m79.624 101.62c-0.27744 0.0716-0.5736 0.16233-0.84525 0.24942-1.9006 0.61203-3.6234 1.6105-5.3195 2.7818-15.666 24.474 7.2969 52.656 31.221 46.052 0.53218-0.15389 1.0537-0.3454 1.5802-0.53192-8.6077-0.0425-17.559-3.7856-23.182-11.968-8.5508-12.443-10.95-27.478 0.32616-35.272 0.84807-0.58565 1.7096-1.1164 2.5997-1.5873-2.1521-0.0703-4.3215-0.25356-6.3799 0.27626z" fill="#fff" opacity=".397" stroke-width="2.0795"/>
 <path d="m37.081 105.75s17.311-42.833 27.834-64.238c5.66-11.513 18.799-34.143 18.799-34.143l3.4899 6.1686s-12.216 19.664-17.83 29.73c-11.5 20.618-32.293 62.483-32.293 62.483z" fill="#483737" stroke-width="2.9819"/>
 <path d="m31.307 86.81c-0.27258-0.08834-0.57118-0.17063-0.84717-0.24282-1.9324-0.5028-3.922-0.5841-5.9817-0.50513-25.629 9.1823-21.888 48.11 1.6518 55.613 0.5317 0.15553 1.0746 0.27358 1.619 0.39858-7.2422-4.6524-12.79-12.613-13.147-22.535-0.54359-15.088 5.4953-29.064 19.192-29.595 1.0299-0.03946 2.0417-0.02539 3.0455 0.05456-1.7786-1.2136-3.5114-2.5318-5.5329-3.1885z" fill="#fff" opacity=".397" stroke-width="2.0795"/>
 <path d="m99.634 103.31c2.0112-4.0976 3.6802-8.2337 9.9619-11.851 3.1714-1.0503 7.4856 1.4573 9.7551 3.0093-9.5956-2.7017-15.679 2.9065-19.717 8.8416z" fill="#fff" fill-rule="evenodd" opacity=".397"/>
 <path d="m86.049 14.286c-3.8324-13.338-6.16 3.8138-9.4864-12.163l15.345 0.24819c0.25988 17.4-4.0826-3.0476-5.8583 11.915z" fill="#b77b30" stroke-width=".81123"/>
 <path d="m85.707 12.382c-6.1569-13.975-0.7183 3.6988-9.2142-10.406l15.253-0.42438c0.24942 15.844-8.9061-4.4001-6.0388 10.83z" fill="#786752" stroke-width=".81123"/>
 <ellipse cx="84.268" cy="1.8924" rx="7.7731" ry="1.8924" color="#000000" color-rendering="auto" fill="#483737" image-rendering="auto" shape-rendering="auto" solid-color="#000000" style="isolation:auto;mix-blend-mode:normal"/>
</svg>
