<?xml version="1.0" encoding="UTF-8"?>
<svg viewBox="0 0 469.1 531.1125" xmlns="http://www.w3.org/2000/svg">
 <defs>
  <linearGradient id="c" x1="-.69495" x2="3.2034" y1=".031239" y2="1.2188">
   <stop stop-color="#fff" stop-opacity=".4784" offset="0"/>
   <stop stop-color="#a00" stop-opacity="0" offset="1"/>
  </linearGradient>
  <radialGradient id="b">
   <stop stop-color="#d7ea72" stop-opacity=".5843" offset="0"/>
   <stop stop-color="#e5ef4a" stop-opacity="0" offset="1"/>
  </radialGradient>
  <radialGradient id="a" cx=".74803" cy=".71875" r="1.0417">
   <stop stop-color="#f00" offset="0"/>
   <stop stop-color="#a00" offset="1"/>
  </radialGradient>
 </defs>
 <path transform="matrix(1 0 0 .97045 0 6.5792)" d="m191.74 389.16 83.874-187.1" fill="#b9fd00" fill-rule="evenodd"/>
 <path transform="matrix(1 0 0 .97045 0 6.5792)" d="m242.09 512.01c-83.682 13.973-107.17-9.4325-161.27-87.308-31.615-41.293-54.337-81.148-64.133-181.62 0-63.753 8.9972-125.28 79.991-159.44 48.662-27.439 90.85 4.6925 149.06 4.6925 72.811-19.03 132.81-4.6065 170.96 37.173s33.818 88.333 33.818 152.09c-13.61 62.815-12.355 66.869-52.93 151.12-43.202 82.5-29.771 60.239-62.094 82.884-28.922 18.424-27.432-5.6749-93.404 0.4133z" fill="url(#a)" fill-rule="evenodd" stroke="#000" stroke-width="5.5197"/>
 <path transform="matrix(.96253 0 0 .93409 263.52 -325.89)" d="m127.36 496.02a145.79 60.326 0 1 0 -291.58 0 145.79 60.326 0 1 0 291.58 0z" fill="url(#b)" fill-rule="evenodd"/>
 <path transform="matrix(.96253 0 0 .93409 50.164 -248.39)" d="m213.39 368.57c-1.3397 13.293-0.31 14.614-3.3039 26.768-15.721 16.174-6.4208 10.773-24.642-1.6507-19.014-12.132-27.945-28.517-39.195-49.448-5-25.93-6.1478-48.455-30.805-59.448 26.971-2.4236 48.427 12.884 57.68 17.573 12.919 13.08 21.266 21.657 31.43 31.937 9.2919 21.263 8.8362 9.588 8.8362 34.268v-1e-4z" fill="#00b200" fill-rule="evenodd" stroke="#000" stroke-width="1.9774"/>
 <path transform="matrix(.96253 0 0 .93409 50.164 -248.39)" d="m199.64 402.52c-2.3151 0.3727-2.3904-6.6551-12.809-13.115-19.036-10.995-25.296-29.128-36.551-48.137-5.0163-23.481-6.1097-43.856-30.806-53.795 0.5145-0.0621 1.029-0.0621 1.5435 0 37.108 14.225 77.18 65.426 78.787 75.924l-0.1655 39.123zm14.888-16.837z" fill="#b0ff8d" fill-opacity=".4397" fill-rule="evenodd"/>
 <path transform="matrix(.96253 0 0 .93409 -293.26 -68.51)" d="m555.12 128.9c-5.4873 7.903 5.4873 28.349 5.4873 40.955s-3.5561 30.709-3.5561 43.315c2.101 0 9.3201-1.1952 11.421-1.1952 0-12.606 1.6057-28.73 1.6057-41.336 3.1356-13.129 5.4873-22.339 12.542-40.171-9.9401-5.7487-10.473-1.3065-15.71-0.7839-2.1011 0-0.1501 0.5507-2.2512 0.5507-1.017-1.202-4.052-3.6864-7.1876-3.6864l-2.3517 2.3518z" fill="#8c5f02" fill-rule="evenodd" stroke="#000" stroke-width="1.9774"/>
 <path transform="matrix(.96253 0 0 .93409 -293.26 -68.51)" d="m570.86 136.12c-1.828 6.687-4.0168 24.415-5.6709 35.341s-1.4165 26.504-3.0707 37.43c1.1626 0.5261 1.5773 0.2749 3.2839 1.0017 1.6542-10.926 1.707-28.288 2.5452-38.898 2.8547-11.286 4.5382-19.198 8.7112-33.019l-1.0388-0.7474-1.9039-1.2671-2.856 0.1584z" fill="#fff" fill-opacity=".2241" fill-rule="evenodd"/>
 <path transform="matrix(.96253 0 0 .93409 -293.26 -68.51)" d="m609.11 204.1c-15.031 6.9705-29.098 2.5733-43.327 9.2719-22.937 0-24.277-0.2918-39.308-7.2624" fill="none" stroke="#000" stroke-width="1.9774"/>
 <path transform="matrix(.94791 .1622 -.16714 .9199 -10.52 -200.66)" d="m188.58 383.35a12.572 27.838 0 1 0 -25.144 0 12.572 27.838 0 1 0 25.144 0z" fill="url(#c)" fill-rule="evenodd"/>
 <path transform="matrix(1 0 0 .97045 0 6.5792)" d="m125.25 476.72c-21.902-38.866-42.823-66.594-57.198-83.132-15.903-41.974-20.539-50.085-34.218-99.503-7.2844-48.424-9.5397-84.035-1.6732-108.75 3.9735-36.998 44.91-69.92 42.69-70.189-0.69654-0.0846 1.2265-23.713 63.329-25.28 16.094 8.3033 17.636 27.931-10.567 57.485-6.9051 33.521-8.0841 58.588-6.3342 86.631 5.8928 57.781 9.1425 91.005 27.835 147.86 23.219 41.937 63.274 95.668 101.79 119.08 10.156 10.958-59.156 15.763-94.892 3.7509l-30.764-27.949z" fill="#fff" fill-opacity=".1724" fill-rule="evenodd"/>
 <path transform="matrix(1 0 0 .97045 0 6.5792)" d="m245.78 46.796c2.5109 23.435 3.0688 22.877 3.0688 22.877l6.4167-20.924c-2.5109 0-1.9529 3.3479-6.1377 0.27901s-3.6268-1.6739-3.3478-2.2319z" fill="#6f4300" fill-rule="evenodd"/>
</svg>
